<mxfile host="drawio-plugin" modified="2021-04-26T17:05:47.862Z" agent="5.0 (Windows NT 6.2; Win64; x64) AppleWebKit/537.36 (KHTML, like Gecko) Chrome/87.0.4280.141 Safari/537.36" etag="9Sjjf3I6wszCqjo00dYi" version="13.7.9" type="embed"><diagram id="v1COSUZNSgXPQDsdeVOm" name="? 1 ?"><mxGraphModel dx="781" dy="446" grid="1" gridSize="10" guides="1" tooltips="1" connect="1" arrows="1" fold="1" page="1" pageScale="1" pageWidth="4681" pageHeight="3300" background="#F4F1DE" math="0" shadow="0"><root><mxCell id="0"/><mxCell id="1" parent="0"/><mxCell id="39" value="&lt;span style=&quot;white-space: normal&quot;&gt;&lt;br&gt;&lt;/span&gt;" style="rounded=0;whiteSpace=wrap;html=1;fillColor=none;strokeColor=#E07A5F;fontColor=#393C56;" parent="1" vertex="1"><mxGeometry x="1053" y="820" width="145" height="50" as="geometry"/></mxCell><mxCell id="5" value="" style="edgeStyle=orthogonalEdgeStyle;rounded=0;orthogonalLoop=1;jettySize=auto;html=1;entryX=0.5;entryY=0;entryDx=0;entryDy=0;labelBackgroundColor=#F4F1DE;strokeColor=#E07A5F;fontColor=#393C56;" parent="1" source="2" target="3" edge="1"><mxGeometry relative="1" as="geometry"><mxPoint x="1125" y="130" as="targetPoint"/></mxGeometry></mxCell><mxCell id="2" value="begin" style="rounded=1;whiteSpace=wrap;html=1;fillColor=#F2CC8F;strokeColor=#E07A5F;fontColor=#393C56;" parent="1" vertex="1"><mxGeometry x="1065" y="30" width="120" height="20" as="geometry"/></mxCell><mxCell id="119" style="edgeStyle=orthogonalEdgeStyle;rounded=0;orthogonalLoop=1;jettySize=auto;html=1;entryX=0.5;entryY=0;entryDx=0;entryDy=0;labelBackgroundColor=#F4F1DE;strokeColor=#E07A5F;fontColor=#393C56;" parent="1" source="3" target="16" edge="1"><mxGeometry relative="1" as="geometry"/></mxCell><mxCell id="3" value="cyclicBarrier=Port.cyclicBarrier&lt;br&gt;timeStop=0&lt;br&gt;current = null" style="rounded=0;whiteSpace=wrap;html=1;fillColor=#F2CC8F;strokeColor=#E07A5F;fontColor=#393C56;" parent="1" vertex="1"><mxGeometry x="992.5" y="90" width="265" height="80" as="geometry"/></mxCell><mxCell id="20" value="" style="edgeStyle=orthogonalEdgeStyle;rounded=0;orthogonalLoop=1;jettySize=auto;html=1;labelBackgroundColor=#F4F1DE;strokeColor=#E07A5F;fontColor=#393C56;" parent="1" source="16" target="21" edge="1"><mxGeometry relative="1" as="geometry"><mxPoint x="1125" y="470" as="targetPoint"/></mxGeometry></mxCell><mxCell id="158" style="edgeStyle=orthogonalEdgeStyle;rounded=0;orthogonalLoop=1;jettySize=auto;html=1;labelBackgroundColor=#F4F1DE;strokeColor=#E07A5F;fontColor=#393C56;" parent="1" source="16" target="102" edge="1"><mxGeometry relative="1" as="geometry"/></mxCell><mxCell id="16" value="time&amp;lt;30days?" style="rhombus;whiteSpace=wrap;html=1;fillColor=#F2CC8F;strokeColor=#E07A5F;fontColor=#393C56;" parent="1" vertex="1"><mxGeometry x="1070" y="250" width="110" height="60" as="geometry"/></mxCell><mxCell id="24" value="" style="edgeStyle=orthogonalEdgeStyle;rounded=0;orthogonalLoop=1;jettySize=auto;html=1;labelBackgroundColor=#F4F1DE;strokeColor=#E07A5F;fontColor=#393C56;" parent="1" source="21" target="23" edge="1"><mxGeometry relative="1" as="geometry"/></mxCell><mxCell id="21" value="схватит замок" style="rounded=0;whiteSpace=wrap;html=1;fillColor=#F2CC8F;strokeColor=#E07A5F;fontColor=#393C56;" parent="1" vertex="1"><mxGeometry x="1065" y="340" width="120" height="20" as="geometry"/></mxCell><mxCell id="31" style="edgeStyle=orthogonalEdgeStyle;rounded=0;orthogonalLoop=1;jettySize=auto;html=1;entryX=0.5;entryY=0;entryDx=0;entryDy=0;labelBackgroundColor=#F4F1DE;strokeColor=#E07A5F;fontColor=#393C56;" parent="1" source="23" target="29" edge="1"><mxGeometry relative="1" as="geometry"/></mxCell><mxCell id="23" value="countWaiting += queuesWaiting.size()" style="rounded=0;whiteSpace=wrap;html=1;fillColor=#F2CC8F;strokeColor=#E07A5F;fontColor=#393C56;" parent="1" vertex="1"><mxGeometry x="950" y="390" width="350" height="20" as="geometry"/></mxCell><mxCell id="22" value="y" style="text;html=1;resizable=0;points=[];autosize=1;align=left;verticalAlign=top;spacingTop=-4;fontColor=#393C56;" parent="1" vertex="1"><mxGeometry x="1125" y="310" width="20" height="20" as="geometry"/></mxCell><mxCell id="33" style="edgeStyle=orthogonalEdgeStyle;rounded=0;orthogonalLoop=1;jettySize=auto;html=1;labelBackgroundColor=#F4F1DE;strokeColor=#E07A5F;fontColor=#393C56;" parent="1" source="29" target="32" edge="1"><mxGeometry relative="1" as="geometry"/></mxCell><mxCell id="120" style="edgeStyle=orthogonalEdgeStyle;rounded=0;orthogonalLoop=1;jettySize=auto;html=1;labelBackgroundColor=#F4F1DE;strokeColor=#E07A5F;fontColor=#393C56;" parent="1" source="29" edge="1"><mxGeometry relative="1" as="geometry"><mxPoint x="1125" y="680" as="targetPoint"/><Array as="points"><mxPoint x="1420" y="505"/></Array></mxGeometry></mxCell><mxCell id="29" value="queuesShips не пустой &amp;amp;&amp;amp; &lt;br&gt;время прибытия первого судна из queuesWiting &amp;lt;= текущее время" style="rhombus;whiteSpace=wrap;html=1;shadow=1;fillColor=#F2CC8F;strokeColor=#E07A5F;fontColor=#393C56;" parent="1" vertex="1"><mxGeometry x="867.5" y="465" width="515" height="80" as="geometry"/></mxCell><mxCell id="35" style="edgeStyle=orthogonalEdgeStyle;rounded=0;orthogonalLoop=1;jettySize=auto;html=1;labelBackgroundColor=#F4F1DE;strokeColor=#E07A5F;fontColor=#393C56;" parent="1" source="32" target="34" edge="1"><mxGeometry relative="1" as="geometry"/></mxCell><mxCell id="32" value="waiting&amp;lt;-ships的首元素" style="rounded=0;whiteSpace=wrap;html=1;fillColor=none;strokeColor=#E07A5F;fontColor=#393C56;" parent="1" vertex="1"><mxGeometry x="1020" y="600" width="210" height="30" as="geometry"/></mxCell><mxCell id="40" style="edgeStyle=orthogonalEdgeStyle;rounded=0;orthogonalLoop=1;jettySize=auto;html=1;entryX=0.5;entryY=0;entryDx=0;entryDy=0;labelBackgroundColor=#F4F1DE;strokeColor=#E07A5F;fontColor=#393C56;" parent="1" source="34" target="39" edge="1"><mxGeometry relative="1" as="geometry"/></mxCell><mxCell id="126" style="edgeStyle=orthogonalEdgeStyle;rounded=0;orthogonalLoop=1;jettySize=auto;html=1;labelBackgroundColor=#F4F1DE;strokeColor=#E07A5F;fontColor=#393C56;" parent="1" source="34" edge="1"><mxGeometry relative="1" as="geometry"><mxPoint x="1125" y="1060" as="targetPoint"/><Array as="points"><mxPoint x="1320" y="750"/><mxPoint x="1320" y="1060"/></Array></mxGeometry></mxCell><mxCell id="34" value="" style="rhombus;whiteSpace=wrap;html=1;fillColor=#F2CC8F;strokeColor=#E07A5F;fontColor=#393C56;" parent="1" vertex="1"><mxGeometry x="987.5" y="710" width="275" height="80" as="geometry"/></mxCell><mxCell id="125" style="edgeStyle=orthogonalEdgeStyle;rounded=0;orthogonalLoop=1;jettySize=auto;html=1;entryX=0.5;entryY=0;entryDx=0;entryDy=0;labelBackgroundColor=#F4F1DE;strokeColor=#E07A5F;fontColor=#393C56;" parent="1" source="36" target="43" edge="1"><mxGeometry relative="1" as="geometry"/></mxCell><mxCell id="36" value="" style="rounded=0;whiteSpace=wrap;html=1;fillColor=none;strokeColor=#E07A5F;fontColor=#393C56;" parent="1" vertex="1"><mxGeometry x="990" y="930" width="270" height="100" as="geometry"/></mxCell><mxCell id="41" style="edgeStyle=orthogonalEdgeStyle;rounded=0;orthogonalLoop=1;jettySize=auto;html=1;entryX=0.5;entryY=0;entryDx=0;entryDy=0;labelBackgroundColor=#F4F1DE;strokeColor=#E07A5F;fontColor=#393C56;" parent="1" source="39" target="36" edge="1"><mxGeometry relative="1" as="geometry"/></mxCell><mxCell id="128" style="edgeStyle=orthogonalEdgeStyle;rounded=0;orthogonalLoop=1;jettySize=auto;html=1;labelBackgroundColor=#F4F1DE;strokeColor=#E07A5F;fontColor=#393C56;" parent="1" source="43" target="44" edge="1"><mxGeometry relative="1" as="geometry"/></mxCell><mxCell id="130" style="edgeStyle=orthogonalEdgeStyle;rounded=0;orthogonalLoop=1;jettySize=auto;html=1;labelBackgroundColor=#F4F1DE;strokeColor=#E07A5F;fontColor=#393C56;" parent="1" source="43" edge="1"><mxGeometry relative="1" as="geometry"><mxPoint x="1120" y="1430" as="targetPoint"/><Array as="points"><mxPoint x="1390" y="1130"/></Array></mxGeometry></mxCell><mxCell id="43" value="" style="rhombus;whiteSpace=wrap;html=1;fillColor=#F2CC8F;strokeColor=#E07A5F;fontColor=#393C56;" parent="1" vertex="1"><mxGeometry x="910" y="1090" width="430" height="80" as="geometry"/></mxCell><mxCell id="46" value="" style="edgeStyle=orthogonalEdgeStyle;rounded=0;orthogonalLoop=1;jettySize=auto;html=1;labelBackgroundColor=#F4F1DE;strokeColor=#E07A5F;fontColor=#393C56;" parent="1" source="44" target="45" edge="1"><mxGeometry relative="1" as="geometry"/></mxCell><mxCell id="44" value="current&amp;lt;-unloading的队首" style="rounded=0;whiteSpace=wrap;html=1;fillColor=none;strokeColor=#E07A5F;fontColor=#393C56;" parent="1" vertex="1"><mxGeometry x="1015" y="1240" width="220" height="60" as="geometry"/></mxCell><mxCell id="129" style="edgeStyle=orthogonalEdgeStyle;rounded=0;orthogonalLoop=1;jettySize=auto;html=1;entryX=0.5;entryY=0;entryDx=0;entryDy=0;labelBackgroundColor=#F4F1DE;strokeColor=#E07A5F;fontColor=#393C56;" parent="1" source="45" target="47" edge="1"><mxGeometry relative="1" as="geometry"/></mxCell><mxCell id="45" value="current.Cranes++&lt;br&gt;freeCranes--" style="rounded=0;whiteSpace=wrap;html=1;fillColor=none;strokeColor=#E07A5F;fontColor=#393C56;" parent="1" vertex="1"><mxGeometry x="1015" y="1330" width="220" height="60" as="geometry"/></mxCell><mxCell id="49" style="edgeStyle=orthogonalEdgeStyle;rounded=0;orthogonalLoop=1;jettySize=auto;html=1;labelBackgroundColor=#F4F1DE;strokeColor=#E07A5F;fontColor=#393C56;" parent="1" source="47" edge="1"><mxGeometry relative="1" as="geometry"><mxPoint x="868" y="1660" as="targetPoint"/></mxGeometry></mxCell><mxCell id="52" style="edgeStyle=orthogonalEdgeStyle;rounded=0;orthogonalLoop=1;jettySize=auto;html=1;entryX=0.5;entryY=0;entryDx=0;entryDy=0;labelBackgroundColor=#F4F1DE;strokeColor=#E07A5F;fontColor=#393C56;" parent="1" source="47" target="51" edge="1"><mxGeometry relative="1" as="geometry"/></mxCell><mxCell id="47" value="current==null" style="rhombus;whiteSpace=wrap;html=1;fillColor=#F2CC8F;strokeColor=#E07A5F;fontColor=#393C56;" parent="1" vertex="1"><mxGeometry x="1080" y="1460" width="80" height="80" as="geometry"/></mxCell><mxCell id="134" style="edgeStyle=orthogonalEdgeStyle;rounded=0;orthogonalLoop=1;jettySize=auto;html=1;labelBackgroundColor=#F4F1DE;strokeColor=#E07A5F;fontColor=#393C56;" parent="1" target="80" edge="1"><mxGeometry relative="1" as="geometry"><mxPoint x="810" y="3020" as="targetPoint"/><mxPoint x="868" y="1642" as="sourcePoint"/><Array as="points"><mxPoint x="868" y="3020"/></Array></mxGeometry></mxCell><mxCell id="50" value="yes" style="text;html=1;resizable=0;points=[];autosize=1;align=left;verticalAlign=top;spacingTop=-4;fontColor=#393C56;" parent="1" vertex="1"><mxGeometry x="1010" y="1480" width="30" height="20" as="geometry"/></mxCell><mxCell id="82" style="edgeStyle=orthogonalEdgeStyle;rounded=0;orthogonalLoop=1;jettySize=auto;html=1;entryX=0.44;entryY=-0.036;entryDx=0;entryDy=0;entryPerimeter=0;labelBackgroundColor=#F4F1DE;strokeColor=#E07A5F;fontColor=#393C56;" parent="1" source="51" target="54" edge="1"><mxGeometry relative="1" as="geometry"/></mxCell><mxCell id="86" style="edgeStyle=orthogonalEdgeStyle;rounded=0;orthogonalLoop=1;jettySize=auto;html=1;labelBackgroundColor=#F4F1DE;strokeColor=#E07A5F;fontColor=#393C56;" parent="1" source="51" target="56" edge="1"><mxGeometry relative="1" as="geometry"><Array as="points"><mxPoint x="1430" y="1620"/><mxPoint x="1430" y="1800"/><mxPoint x="1270" y="1800"/></Array></mxGeometry></mxCell><mxCell id="51" value="current not unloading" style="rhombus;whiteSpace=wrap;html=1;fillColor=#F2CC8F;strokeColor=#E07A5F;fontColor=#393C56;" parent="1" vertex="1"><mxGeometry x="1222.5" y="1582" width="80" height="80" as="geometry"/></mxCell><mxCell id="53" value="no" style="text;html=1;resizable=0;points=[];autosize=1;align=left;verticalAlign=top;spacingTop=-4;fontColor=#393C56;" parent="1" vertex="1"><mxGeometry x="1200" y="1480" width="30" height="20" as="geometry"/></mxCell><mxCell id="83" style="edgeStyle=orthogonalEdgeStyle;rounded=0;orthogonalLoop=1;jettySize=auto;html=1;entryX=0.5;entryY=0;entryDx=0;entryDy=0;labelBackgroundColor=#F4F1DE;strokeColor=#E07A5F;fontColor=#393C56;" parent="1" source="54" target="56" edge="1"><mxGeometry relative="1" as="geometry"/></mxCell><mxCell id="54" value="current.setUnloading&lt;br&gt;current.setSUT(now)" style="rounded=0;whiteSpace=wrap;html=1;fillColor=none;strokeColor=#E07A5F;fontColor=#393C56;" parent="1" vertex="1"><mxGeometry x="1210" y="1710" width="120" height="60" as="geometry"/></mxCell><mxCell id="90" style="edgeStyle=orthogonalEdgeStyle;rounded=0;orthogonalLoop=1;jettySize=auto;html=1;labelBackgroundColor=#F4F1DE;strokeColor=#E07A5F;fontColor=#393C56;" parent="1" source="56" target="57" edge="1"><mxGeometry relative="1" as="geometry"/></mxCell><mxCell id="92" style="edgeStyle=orthogonalEdgeStyle;rounded=0;orthogonalLoop=1;jettySize=auto;html=1;entryX=0.5;entryY=0;entryDx=0;entryDy=0;labelBackgroundColor=#F4F1DE;strokeColor=#E07A5F;fontColor=#393C56;" parent="1" source="56" target="58" edge="1"><mxGeometry relative="1" as="geometry"><mxPoint x="1480" y="2140" as="targetPoint"/><Array as="points"><mxPoint x="1490" y="1880"/><mxPoint x="1490" y="2110"/><mxPoint x="1250" y="2110"/></Array></mxGeometry></mxCell><mxCell id="56" value="current is unloading" style="rhombus;whiteSpace=wrap;html=1;fillColor=#F2CC8F;strokeColor=#E07A5F;fontColor=#393C56;" parent="1" vertex="1"><mxGeometry x="1230" y="1840" width="80" height="80" as="geometry"/></mxCell><mxCell id="91" style="edgeStyle=orthogonalEdgeStyle;rounded=0;orthogonalLoop=1;jettySize=auto;html=1;entryX=0.5;entryY=0;entryDx=0;entryDy=0;labelBackgroundColor=#F4F1DE;strokeColor=#E07A5F;fontColor=#393C56;" parent="1" source="57" target="58" edge="1"><mxGeometry relative="1" as="geometry"/></mxCell><mxCell id="57" value="&lt;span style=&quot;text-align: left&quot;&gt;уменьшает вес&lt;/span&gt;" style="rounded=0;whiteSpace=wrap;html=1;fillColor=none;strokeColor=#E07A5F;fontColor=#393C56;" parent="1" vertex="1"><mxGeometry x="1210" y="1970" width="120" height="60" as="geometry"/></mxCell><mxCell id="64" style="edgeStyle=orthogonalEdgeStyle;rounded=0;orthogonalLoop=1;jettySize=auto;html=1;labelBackgroundColor=#F4F1DE;strokeColor=#E07A5F;fontColor=#393C56;" parent="1" target="60" edge="1"><mxGeometry relative="1" as="geometry"><mxPoint x="1182.375" y="2200" as="sourcePoint"/></mxGeometry></mxCell><mxCell id="79" style="edgeStyle=orthogonalEdgeStyle;rounded=0;orthogonalLoop=1;jettySize=auto;html=1;entryX=0.75;entryY=0;entryDx=0;entryDy=0;labelBackgroundColor=#F4F1DE;strokeColor=#E07A5F;fontColor=#393C56;" parent="1" target="74" edge="1"><mxGeometry relative="1" as="geometry"><mxPoint x="1320.6249999999995" y="2200" as="sourcePoint"/><Array as="points"><mxPoint x="1321" y="2201"/><mxPoint x="1334" y="2201"/></Array><mxPoint x="1330" y="2850" as="targetPoint"/></mxGeometry></mxCell><mxCell id="58" value="current.weight=0" style="rhombus;whiteSpace=wrap;html=1;fillColor=#F2CC8F;strokeColor=#E07A5F;fontColor=#393C56;" parent="1" vertex="1"><mxGeometry x="1180" y="2160.5" width="140" height="80" as="geometry"/></mxCell><mxCell id="65" style="edgeStyle=orthogonalEdgeStyle;rounded=0;orthogonalLoop=1;jettySize=auto;html=1;entryX=0.5;entryY=0;entryDx=0;entryDy=0;labelBackgroundColor=#F4F1DE;strokeColor=#E07A5F;fontColor=#393C56;" parent="1" source="60" target="61" edge="1"><mxGeometry relative="1" as="geometry"/></mxCell><mxCell id="69" style="edgeStyle=orthogonalEdgeStyle;rounded=0;orthogonalLoop=1;jettySize=auto;html=1;labelBackgroundColor=#F4F1DE;strokeColor=#E07A5F;fontColor=#393C56;" parent="1" source="60" edge="1"><mxGeometry relative="1" as="geometry"><mxPoint x="1096.5" y="2480.5" as="targetPoint"/><Array as="points"><mxPoint x="1211.5" y="2290.5"/><mxPoint x="1211.5" y="2480.5"/><mxPoint x="1166.5" y="2480.5"/></Array></mxGeometry></mxCell><mxCell id="60" value="current.Cranes&amp;gt;0" style="rhombus;whiteSpace=wrap;html=1;fillColor=#F2CC8F;strokeColor=#E07A5F;fontColor=#393C56;" parent="1" vertex="1"><mxGeometry x="1026.5" y="2250.5" width="140" height="80" as="geometry"/></mxCell><mxCell id="66" style="edgeStyle=orthogonalEdgeStyle;rounded=0;orthogonalLoop=1;jettySize=auto;html=1;labelBackgroundColor=#F4F1DE;strokeColor=#E07A5F;fontColor=#393C56;" parent="1" source="61" target="62" edge="1"><mxGeometry relative="1" as="geometry"/></mxCell><mxCell id="61" value="current.cranes--&lt;br&gt;freeCranes++" style="rounded=0;whiteSpace=wrap;html=1;fillColor=none;strokeColor=#E07A5F;fontColor=#393C56;" parent="1" vertex="1"><mxGeometry x="1036.5" y="2380.5" width="120" height="60" as="geometry"/></mxCell><mxCell id="73" style="edgeStyle=orthogonalEdgeStyle;rounded=0;orthogonalLoop=1;jettySize=auto;html=1;entryX=0.5;entryY=0;entryDx=0;entryDy=0;labelBackgroundColor=#F4F1DE;strokeColor=#E07A5F;fontColor=#393C56;" parent="1" source="62" target="63" edge="1"><mxGeometry relative="1" as="geometry"/></mxCell><mxCell id="76" style="edgeStyle=orthogonalEdgeStyle;rounded=0;orthogonalLoop=1;jettySize=auto;html=1;entryX=0.369;entryY=0.033;entryDx=0;entryDy=0;entryPerimeter=0;labelBackgroundColor=#F4F1DE;strokeColor=#E07A5F;fontColor=#393C56;" parent="1" source="62" target="74" edge="1"><mxGeometry relative="1" as="geometry"><mxPoint x="1313" y="2880" as="targetPoint"/><Array as="points"><mxPoint x="1300" y="2561"/><mxPoint x="1300" y="2880"/><mxPoint x="1301" y="2880"/></Array></mxGeometry></mxCell><mxCell id="62" value="current.Cranes=0" style="rhombus;whiteSpace=wrap;html=1;fillColor=#F2CC8F;strokeColor=#E07A5F;fontColor=#393C56;" parent="1" vertex="1"><mxGeometry x="1026.5" y="2520.5" width="140" height="80" as="geometry"/></mxCell><mxCell id="75" style="edgeStyle=orthogonalEdgeStyle;rounded=0;orthogonalLoop=1;jettySize=auto;html=1;entryX=0.161;entryY=0.016;entryDx=0;entryDy=0;entryPerimeter=0;labelBackgroundColor=#F4F1DE;strokeColor=#E07A5F;fontColor=#393C56;" parent="1" source="63" target="74" edge="1"><mxGeometry relative="1" as="geometry"><Array as="points"><mxPoint x="1097" y="2760"/><mxPoint x="1284" y="2760"/></Array></mxGeometry></mxCell><mxCell id="63" value="current.FUT=now&lt;br&gt;current.isUnloading=false&lt;br&gt;unloaded&amp;lt;-current&lt;br&gt;current remove from unloading" style="rounded=0;whiteSpace=wrap;html=1;fillColor=none;strokeColor=#E07A5F;fontColor=#393C56;" parent="1" vertex="1"><mxGeometry x="960" y="2660.5" width="273" height="70" as="geometry"/></mxCell><mxCell id="81" value="" style="edgeStyle=orthogonalEdgeStyle;rounded=0;orthogonalLoop=1;jettySize=auto;html=1;labelBackgroundColor=#F4F1DE;strokeColor=#E07A5F;fontColor=#393C56;" parent="1" source="74" target="80" edge="1"><mxGeometry relative="1" as="geometry"/></mxCell><mxCell id="74" value="current=null" style="rounded=0;whiteSpace=wrap;html=1;fillColor=none;strokeColor=#E07A5F;fontColor=#393C56;" parent="1" vertex="1"><mxGeometry x="1270" y="2910" width="85" height="20" as="geometry"/></mxCell><mxCell id="101" style="edgeStyle=orthogonalEdgeStyle;rounded=0;orthogonalLoop=1;jettySize=auto;html=1;entryX=0;entryY=0.5;entryDx=0;entryDy=0;labelBackgroundColor=#F4F1DE;strokeColor=#E07A5F;fontColor=#393C56;" parent="1" source="80" target="16" edge="1"><mxGeometry relative="1" as="geometry"><mxPoint x="650" y="300" as="targetPoint"/><Array as="points"><mxPoint x="740" y="3030"/><mxPoint x="740" y="280"/></Array></mxGeometry></mxCell><mxCell id="157" style="edgeStyle=orthogonalEdgeStyle;rounded=0;orthogonalLoop=1;jettySize=auto;html=1;entryX=0.5;entryY=0;entryDx=0;entryDy=0;labelBackgroundColor=#F4F1DE;strokeColor=#E07A5F;fontColor=#393C56;" parent="1" source="80" target="102" edge="1"><mxGeometry relative="1" as="geometry"><mxPoint x="1590" y="2190" as="targetPoint"/><Array as="points"><mxPoint x="1330" y="3230"/><mxPoint x="1580" y="3230"/><mxPoint x="1580" y="2190"/><mxPoint x="1835" y="2190"/></Array></mxGeometry></mxCell><mxCell id="80" value="unlock()&lt;br&gt;burrier.await()" style="rounded=0;whiteSpace=wrap;html=1;fillColor=#F2CC8F;strokeColor=#E07A5F;fontColor=#393C56;" parent="1" vertex="1"><mxGeometry x="1242.5" y="3000" width="140" height="60" as="geometry"/></mxCell><mxCell id="87" value="no" style="text;html=1;resizable=0;points=[];autosize=1;align=left;verticalAlign=top;spacingTop=-4;fontColor=#393C56;" parent="1" vertex="1"><mxGeometry x="1343" y="1602" width="30" height="20" as="geometry"/></mxCell><mxCell id="88" value="yes" style="text;html=1;resizable=0;points=[];autosize=1;align=left;verticalAlign=top;spacingTop=-4;fontColor=#393C56;" parent="1" vertex="1"><mxGeometry x="1273" y="1680" width="30" height="20" as="geometry"/></mxCell><mxCell id="93" value="n" style="text;html=1;resizable=0;points=[];autosize=1;align=left;verticalAlign=top;spacingTop=-4;fontColor=#393C56;" parent="1" vertex="1"><mxGeometry x="1380" y="1860" width="20" height="20" as="geometry"/></mxCell><mxCell id="94" value="y" style="text;html=1;resizable=0;points=[];autosize=1;align=left;verticalAlign=top;spacingTop=-4;fontColor=#393C56;" parent="1" vertex="1"><mxGeometry x="1242.5" y="1940" width="20" height="20" as="geometry"/></mxCell><mxCell id="95" value="n" style="text;html=1;resizable=0;points=[];autosize=1;align=left;verticalAlign=top;spacingTop=-4;fontColor=#393C56;" parent="1" vertex="1"><mxGeometry x="1200" y="2540.5" width="20" height="20" as="geometry"/></mxCell><mxCell id="96" value="y" style="text;html=1;resizable=0;points=[];autosize=1;align=left;verticalAlign=top;spacingTop=-4;fontColor=#393C56;" parent="1" vertex="1"><mxGeometry x="1056" y="2620" width="20" height="20" as="geometry"/></mxCell><mxCell id="97" value="n" style="text;html=1;resizable=0;points=[];autosize=1;align=left;verticalAlign=top;spacingTop=-4;fontColor=#393C56;" parent="1" vertex="1"><mxGeometry x="1180" y="2274" width="20" height="20" as="geometry"/></mxCell><mxCell id="98" value="y" style="text;html=1;resizable=0;points=[];autosize=1;align=left;verticalAlign=top;spacingTop=-4;fontColor=#393C56;" parent="1" vertex="1"><mxGeometry x="1066" y="2350" width="20" height="20" as="geometry"/></mxCell><mxCell id="99" value="y" style="text;html=1;resizable=0;points=[];autosize=1;align=left;verticalAlign=top;spacingTop=-4;fontColor=#393C56;" parent="1" vertex="1"><mxGeometry x="1144" y="2179" width="20" height="20" as="geometry"/></mxCell><mxCell id="100" value="n" style="text;html=1;resizable=0;points=[];autosize=1;align=left;verticalAlign=top;spacingTop=-4;fontColor=#393C56;" parent="1" vertex="1"><mxGeometry x="1328" y="2182" width="20" height="20" as="geometry"/></mxCell><mxCell id="115" style="edgeStyle=orthogonalEdgeStyle;rounded=0;orthogonalLoop=1;jettySize=auto;html=1;entryX=0.5;entryY=0;entryDx=0;entryDy=0;labelBackgroundColor=#F4F1DE;strokeColor=#E07A5F;fontColor=#393C56;" parent="1" source="102" target="103" edge="1"><mxGeometry relative="1" as="geometry"/></mxCell><mxCell id="102" value="lock" style="rounded=0;whiteSpace=wrap;html=1;fillColor=#F2CC8F;strokeColor=#E07A5F;fontColor=#393C56;" parent="1" vertex="1"><mxGeometry x="1775" y="2240.5" width="120" height="30" as="geometry"/></mxCell><mxCell id="117" style="edgeStyle=orthogonalEdgeStyle;rounded=0;orthogonalLoop=1;jettySize=auto;html=1;exitX=1;exitY=0.5;exitDx=0;exitDy=0;labelBackgroundColor=#F4F1DE;strokeColor=#E07A5F;fontColor=#393C56;" parent="1" source="103" edge="1"><mxGeometry relative="1" as="geometry"><mxPoint x="1835" y="2960" as="targetPoint"/><Array as="points"><mxPoint x="2045" y="2370"/><mxPoint x="2045" y="2960"/></Array></mxGeometry></mxCell><mxCell id="118" style="edgeStyle=orthogonalEdgeStyle;rounded=0;orthogonalLoop=1;jettySize=auto;html=1;entryX=0.5;entryY=0;entryDx=0;entryDy=0;labelBackgroundColor=#F4F1DE;strokeColor=#E07A5F;fontColor=#393C56;" parent="1" source="103" target="104" edge="1"><mxGeometry relative="1" as="geometry"/></mxCell><mxCell id="103" value="curren!=null" style="rhombus;whiteSpace=wrap;html=1;fillColor=none;strokeColor=#E07A5F;fontColor=#393C56;" parent="1" vertex="1"><mxGeometry x="1785" y="2330" width="100" height="80" as="geometry"/></mxCell><mxCell id="114" style="edgeStyle=orthogonalEdgeStyle;rounded=0;orthogonalLoop=1;jettySize=auto;html=1;labelBackgroundColor=#F4F1DE;strokeColor=#E07A5F;fontColor=#393C56;" parent="1" source="104" target="107" edge="1"><mxGeometry relative="1" as="geometry"/></mxCell><mxCell id="104" value="timeFine = now-(current.AT+current.UD)" style="rounded=0;whiteSpace=wrap;html=1;fillColor=none;strokeColor=#E07A5F;fontColor=#393C56;" parent="1" vertex="1"><mxGeometry x="1700" y="2496" width="270" height="25" as="geometry"/></mxCell><mxCell id="110" style="edgeStyle=orthogonalEdgeStyle;rounded=0;orthogonalLoop=1;jettySize=auto;html=1;labelBackgroundColor=#F4F1DE;strokeColor=#E07A5F;fontColor=#393C56;" parent="1" source="107" target="108" edge="1"><mxGeometry relative="1" as="geometry"/></mxCell><mxCell id="107" value="timeFine&amp;gt;0" style="rhombus;whiteSpace=wrap;html=1;fillColor=none;strokeColor=#E07A5F;fontColor=#393C56;" parent="1" vertex="1"><mxGeometry x="1795" y="2580.5" width="80" height="80" as="geometry"/></mxCell><mxCell id="108" value="timeFine=timeFine/60+余数&lt;br&gt;fine=timeFine*100" style="rounded=0;whiteSpace=wrap;html=1;fillColor=none;strokeColor=#E07A5F;fontColor=#393C56;" parent="1" vertex="1"><mxGeometry x="1740" y="2780" width="190" height="60" as="geometry"/></mxCell><mxCell id="113" style="edgeStyle=orthogonalEdgeStyle;rounded=0;orthogonalLoop=1;jettySize=auto;html=1;entryX=0.5;entryY=0;entryDx=0;entryDy=0;labelBackgroundColor=#F4F1DE;strokeColor=#E07A5F;fontColor=#393C56;" parent="1" source="109" target="112" edge="1"><mxGeometry relative="1" as="geometry"/></mxCell><mxCell id="109" value="mapFine += fine" style="rounded=0;whiteSpace=wrap;html=1;fillColor=none;strokeColor=#E07A5F;fontColor=#393C56;" parent="1" vertex="1"><mxGeometry x="1740" y="2840" width="190" height="60" as="geometry"/></mxCell><mxCell id="112" value="unlock" style="rounded=0;whiteSpace=wrap;html=1;fillColor=#F2CC8F;strokeColor=#E07A5F;fontColor=#393C56;" parent="1" vertex="1"><mxGeometry x="1775" y="3000" width="120" height="30" as="geometry"/></mxCell><mxCell id="121" value="y" style="text;html=1;resizable=0;points=[];autosize=1;align=left;verticalAlign=top;spacingTop=-4;fontColor=#393C56;" parent="1" vertex="1"><mxGeometry x="1132" y="568" width="20" height="20" as="geometry"/></mxCell><mxCell id="122" value="n" style="text;html=1;resizable=0;points=[];autosize=1;align=left;verticalAlign=top;spacingTop=-4;fontColor=#393C56;" parent="1" vertex="1"><mxGeometry x="1390" y="485" width="20" height="20" as="geometry"/></mxCell><mxCell id="131" value="n" style="text;html=1;resizable=0;points=[];autosize=1;align=left;verticalAlign=top;spacingTop=-4;fontColor=#393C56;" parent="1" vertex="1"><mxGeometry x="1355" y="1110" width="20" height="20" as="geometry"/></mxCell><mxCell id="132" value="y" style="text;html=1;resizable=0;points=[];autosize=1;align=left;verticalAlign=top;spacingTop=-4;fontColor=#393C56;" parent="1" vertex="1"><mxGeometry x="1134" y="1199" width="20" height="20" as="geometry"/></mxCell><mxCell id="136" value="waiting=empty&lt;br&gt;unloading=empty&lt;br&gt;completed" style="text;html=1;resizable=0;points=[];autosize=1;align=left;verticalAlign=top;spacingTop=-4;fontColor=#393C56;" parent="1" vertex="1"><mxGeometry x="757.5" y="1550" width="110" height="40" as="geometry"/></mxCell><mxCell id="137" value="完成队列任务" style="text;html=1;resizable=0;points=[];autosize=1;align=left;verticalAlign=top;spacingTop=-4;fontColor=#393C56;" parent="1" vertex="1"><mxGeometry x="897.5" y="1480" width="90" height="20" as="geometry"/></mxCell><mxCell id="138" value="开始卸货" style="text;html=1;resizable=0;points=[];autosize=1;align=left;verticalAlign=top;spacingTop=-4;fontColor=#393C56;" parent="1" vertex="1"><mxGeometry x="1277" y="1666" width="60" height="20" as="geometry"/></mxCell><mxCell id="139" value="卸货：船的重量减少" style="text;html=1;resizable=0;points=[];autosize=1;align=left;verticalAlign=top;spacingTop=-4;fontColor=#393C56;" parent="1" vertex="1"><mxGeometry x="1275" y="1938" width="120" height="20" as="geometry"/></mxCell><mxCell id="140" value="&lt;b&gt;当前船卸载完成了吗？&lt;/b&gt;" style="text;html=1;resizable=0;points=[];autosize=1;align=left;verticalAlign=top;spacingTop=-4;fontColor=#393C56;" parent="1" vertex="1"><mxGeometry x="1050" y="2154" width="140" height="20" as="geometry"/></mxCell><mxCell id="141" value="&lt;b&gt;起重机的数量&amp;gt;0吗？&lt;/b&gt;" style="text;html=1;resizable=0;points=[];autosize=1;align=left;verticalAlign=top;spacingTop=-4;fontColor=#393C56;" parent="1" vertex="1"><mxGeometry x="910" y="2264" width="130" height="20" as="geometry"/></mxCell><mxCell id="142" value="释放起重机" style="text;html=1;resizable=0;points=[];autosize=1;align=left;verticalAlign=top;spacingTop=-4;fontColor=#393C56;" parent="1" vertex="1"><mxGeometry x="957.5" y="2390.5" width="80" height="20" as="geometry"/></mxCell><mxCell id="143" value="&lt;b&gt;current船的卸货完成：&lt;/b&gt;&lt;br&gt;1. 记录完成时间&lt;br&gt;2. 把current放入到unloaded队列&lt;br&gt;3. 把current移出unloading队列" style="text;html=1;resizable=0;points=[];autosize=1;align=left;verticalAlign=top;spacingTop=-4;fontColor=#393C56;" parent="1" vertex="1"><mxGeometry x="785" y="2730" width="190" height="60" as="geometry"/></mxCell><mxCell id="146" value="ДА:&amp;nbsp; &lt;br&gt;1. присваивать первое из очереди waiting &lt;br&gt;к currentShip &lt;br&gt;2. перенести currentShip в&amp;nbsp;&lt;br&gt;unloading" style="text;html=1;resizable=0;points=[];autosize=1;align=left;verticalAlign=top;spacingTop=-4;fontColor=#393C56;" parent="1" vertex="1"><mxGeometry x="999" y="820" width="250" height="70" as="geometry"/></mxCell><mxCell id="148" value="&lt;b&gt;Есть ли судно в очереди waiting?&lt;/b&gt;" style="text;html=1;resizable=0;points=[];autosize=1;align=left;verticalAlign=top;spacingTop=-4;fontColor=#393C56;" parent="1" vertex="1"><mxGeometry x="1026.5" y="740" width="220" height="10" as="geometry"/></mxCell><mxCell id="150" value="&lt;u&gt;перенести первое судно их ships в waiting&lt;/u&gt;" style="text;html=1;resizable=0;points=[];autosize=1;align=left;verticalAlign=top;spacingTop=-4;fontColor=#393C56;" parent="1" vertex="1"><mxGeometry x="765" y="610" width="250" height="10" as="geometry"/></mxCell><mxCell id="151" value="&lt;b&gt;Все судны разгруженные?&lt;/b&gt;" style="text;html=1;resizable=0;points=[];autosize=1;align=left;verticalAlign=top;spacingTop=-4;fontColor=#393C56;" parent="1" vertex="1"><mxGeometry x="1035" y="1545" width="180" height="10" as="geometry"/></mxCell><mxCell id="152" value="&lt;b&gt;当前船还没开始卸货？&lt;/b&gt;" style="text;html=1;resizable=0;points=[];autosize=1;align=left;verticalAlign=top;spacingTop=-4;fontColor=#393C56;" parent="1" vertex="1"><mxGeometry x="1095" y="1612" width="140" height="20" as="geometry"/></mxCell><mxCell id="153" value="&lt;b&gt;当前船正在卸货？&lt;/b&gt;" style="text;html=1;resizable=0;points=[];autosize=1;align=left;verticalAlign=top;spacingTop=-4;fontColor=#393C56;" parent="1" vertex="1"><mxGeometry x="1080" y="1850" width="110" height="20" as="geometry"/></mxCell><mxCell id="154" value="&lt;b&gt;起重机已经完全释放？&lt;/b&gt;" style="text;html=1;resizable=0;points=[];autosize=1;align=left;verticalAlign=top;spacingTop=-4;fontColor=#393C56;" parent="1" vertex="1"><mxGeometry x="910" y="2550.5" width="140" height="20" as="geometry"/></mxCell><mxCell id="155" value="y" style="text;html=1;resizable=0;points=[];autosize=1;align=left;verticalAlign=top;spacingTop=-4;fontColor=#393C56;" parent="1" vertex="1"><mxGeometry x="1811" y="2444" width="20" height="20" as="geometry"/></mxCell><mxCell id="156" value="n" style="text;html=1;resizable=0;points=[];autosize=1;align=left;verticalAlign=top;spacingTop=-4;fontColor=#393C56;" parent="1" vertex="1"><mxGeometry x="1960" y="2350" width="20" height="20" as="geometry"/></mxCell><mxCell id="159" value="n" style="text;html=1;resizable=0;points=[];autosize=1;align=left;verticalAlign=top;spacingTop=-4;fontColor=#393C56;" parent="1" vertex="1"><mxGeometry x="1242" y="261" width="20" height="20" as="geometry"/></mxCell><mxCell id="160" value="&lt;b&gt;Высчисляем &lt;br&gt;сумму&lt;br&gt;штрава&lt;/b&gt;" style="text;html=1;resizable=0;points=[];autosize=1;align=left;verticalAlign=top;spacingTop=-4;fontColor=#393C56;" parent="1" vertex="1"><mxGeometry x="1650" y="2790" width="90" height="40" as="geometry"/></mxCell><mxCell id="162" value="3. Взять случайное время задержки разгрузки&lt;br&gt;4. нужно для числа кранов currentShip +1&lt;br&gt;5. freeCranes -1&lt;br&gt;6. sumUnloadDuration += currentShip.delay" style="text;html=1;resizable=0;points=[];autosize=1;align=left;verticalAlign=top;spacingTop=-4;fontColor=#393C56;" parent="1" vertex="1"><mxGeometry x="990" y="930" width="270" height="50" as="geometry"/></mxCell><mxCell id="163" value="&lt;b&gt;Есть судно в очерези unloading?&lt;/b&gt;" style="text;html=1;resizable=0;points=[];autosize=1;align=left;verticalAlign=top;spacingTop=-4;fontColor=#393C56;" parent="1" vertex="1"><mxGeometry x="1039" y="1125" width="210" height="10" as="geometry"/></mxCell><mxCell id="165" value="ДА:&lt;br&gt;1. присваивать первое из очереди unloading&lt;br&gt;к currentShip&lt;br&gt;2. currentShip.cranes+1&lt;br&gt;3. freeCranes -1&lt;br&gt;" style="text;html=1;resizable=0;points=[];autosize=1;align=left;verticalAlign=top;spacingTop=-4;fontColor=#393C56;" parent="1" vertex="1"><mxGeometry x="776.5" y="1235" width="260" height="70" as="geometry"/></mxCell><mxCell id="166" value="Выполняет разгрузки всех &lt;br&gt;суднов в очерери" style="text;html=1;resizable=0;points=[];autosize=1;align=left;verticalAlign=top;spacingTop=-4;fontColor=#393C56;" parent="1" vertex="1"><mxGeometry x="746.5" y="1607" width="160" height="30" as="geometry"/></mxCell><mxCell id="167" value="&lt;b&gt;currentShip начинает ли разгрузку?&lt;/b&gt;" style="text;html=1;resizable=0;points=[];autosize=1;align=left;verticalAlign=top;spacingTop=-4;fontColor=#393C56;" parent="1" vertex="1"><mxGeometry x="1020" y="1632" width="230" height="10" as="geometry"/></mxCell><mxCell id="169" value="&lt;b&gt;currentShip на разгрузке?&lt;/b&gt;" style="text;html=1;resizable=0;points=[];autosize=1;align=left;verticalAlign=top;spacingTop=-4;fontColor=#393C56;" parent="1" vertex="1"><mxGeometry x="1053" y="1875" width="170" height="10" as="geometry"/></mxCell><mxCell id="171" value="&lt;b&gt;currentShip&lt;/b&gt;&lt;b&gt;&amp;nbsp;разгруженнный?&lt;/b&gt;" style="text;html=1;resizable=0;points=[];autosize=1;align=left;verticalAlign=top;spacingTop=-4;fontColor=#393C56;" parent="1" vertex="1"><mxGeometry x="1030.5" y="2169" width="190" height="10" as="geometry"/></mxCell><mxCell id="172" value="&lt;b&gt;вес больше 0?&lt;/b&gt;" style="text;html=1;resizable=0;points=[];autosize=1;align=left;verticalAlign=top;spacingTop=-4;fontColor=#393C56;" parent="1" vertex="1"><mxGeometry x="920" y="2284" width="100" height="10" as="geometry"/></mxCell><mxCell id="174" value="current выполнила разгрузку&lt;br&gt;1. запишем время завершения&lt;br&gt;2. перенести current в unloaded&lt;br&gt;3. удалим current из unloading" style="text;html=1;fontColor=#393C56;" parent="1" vertex="1"><mxGeometry x="780" y="2661" width="180" height="70" as="geometry"/></mxCell><mxCell id="176" value="&lt;span style=&quot;text-align: center ; white-space: normal&quot;&gt;current &amp;lt;- waiting的首元素&lt;/span&gt;&lt;br style=&quot;text-align: center ; white-space: normal&quot;&gt;&lt;span style=&quot;text-align: center ; white-space: normal&quot;&gt;unloading &amp;lt;- current&lt;/span&gt;" style="text;html=1;resizable=0;points=[];autosize=1;align=left;verticalAlign=top;spacingTop=-4;fontColor=#393C56;" parent="1" vertex="1"><mxGeometry x="785" y="805" width="160" height="30" as="geometry"/></mxCell></root></mxGraphModel></diagram></mxfile>